<svg width="19" height="19" viewBox="0 0 19 19" fill="none" xmlns="http://www.w3.org/2000/svg">
<g opacity="0.6">
<path fill-rule="evenodd" clip-rule="evenodd" d="M14.0472 7.35065C13.8004 7.56659 13.4253 7.54158 13.2094 7.2948L9.49999 3.05547L5.79058 7.2948C5.57465 7.54158 5.19954 7.56659 4.95275 7.35065C4.70597 7.13472 4.68096 6.75961 4.8969 6.51282L9.05315 1.76282C9.1659 1.63397 9.32878 1.56006 9.49999 1.56006C9.67121 1.56006 9.83409 1.63397 9.94683 1.76282L14.1031 6.51282C14.319 6.75961 14.294 7.13472 14.0472 7.35065Z" fill="#7A7A7A"/>
<path fill-rule="evenodd" clip-rule="evenodd" d="M14.0472 11.6445C14.294 11.8604 14.319 12.2355 14.1031 12.4823L9.94683 17.2323C9.83409 17.3612 9.67121 17.4351 9.49999 17.4351C9.32878 17.4351 9.1659 17.3612 9.05315 17.2323L4.8969 12.4823C4.68096 12.2355 4.70597 11.8604 4.95275 11.6445C5.19954 11.4285 5.57465 11.4535 5.79058 11.7003L9.49999 15.9397L13.2094 11.7003C13.4253 11.4535 13.8004 11.4285 14.0472 11.6445Z" fill="#7A7A7A"/>
</g>
</svg>
