<svg width="128" height="128" viewBox="0 0 128 128" fill="none" xmlns="http://www.w3.org/2000/svg">
<rect width="128" height="128" rx="30" fill="white"/>
<path d="M13.5156 60.625V58.6875H22.7812V60.625H19.3125V70H16.9844V60.625H13.5156ZM25.1944 70V58.6875H32.7881V60.625H27.5381V63.375H32.3975V65.3125H27.5381V68.0625H32.8038V70H25.1944ZM37.4669 70H34.9356L38.8575 58.6875H41.8731L45.7794 70H43.2638L42.42 67.3906H38.3263L37.4669 70ZM38.92 65.5625H41.8263L40.4044 61.2344H40.3263L38.92 65.5625ZM48.0206 58.6875H50.9269L54.0675 66.3594H54.1925L57.3331 58.6875H60.2394V70H57.9581V62.5938H57.8644L54.9113 69.9531H53.3488L50.3956 62.5625H50.3019V70H48.0206V58.6875ZM68.8781 58.6875H71.7844L74.925 66.3594H75.05L78.1906 58.6875H81.0969V70H78.8156V62.5938H78.7219L75.7687 69.9531H74.2062L71.2531 62.5625H71.1594V70H68.8781V58.6875ZM85.8538 70H83.3225L87.2444 58.6875H90.26L94.1663 70H91.6506L90.8069 67.3906H86.7131L85.8538 70ZM87.3069 65.5625H90.2131L88.7913 61.2344H88.7131L87.3069 65.5625ZM94.5794 60.625V58.6875H103.845V60.625H100.376V70H98.0481V60.625H94.5794ZM106.258 70V58.6875H113.852V60.625H108.602V63.375H113.461V65.3125H108.602V68.0625H113.868V70H106.258Z" fill="black"/>
<path d="M64.5588 70.1719C63.715 70.1719 63.0275 69.5 63.0431 68.6562C63.0275 67.8281 63.715 67.1562 64.5588 67.1562C65.3556 67.1562 66.0744 67.8281 66.0744 68.6562C66.0744 69.5 65.3556 70.1719 64.5588 70.1719Z" fill="#4DAFFE"/>
</svg>
