<svg width="128" height="128" viewBox="0 0 128 128" fill="none" xmlns="http://www.w3.org/2000/svg">
<rect width="128" height="128" rx="30" fill="white"/>
<path d="M111.07 69.7117C109.855 69.7117 108.862 69.455 108.092 68.9415C107.339 68.4109 106.774 67.7347 106.398 66.9131C106.038 66.0915 105.85 65.2357 105.833 64.3456C105.816 63.2844 106.012 62.343 106.423 61.5214C106.851 60.6827 107.45 60.0322 108.22 59.5701C109.008 59.0908 109.932 58.8512 110.993 58.8512C111.935 58.8512 112.782 59.0566 113.535 59.4674C114.288 59.8782 114.879 60.4516 115.307 61.1876C115.752 61.9236 115.983 62.8051 116 63.8321C116 63.8664 116 63.9691 116 64.1402C116 64.2943 116 64.4141 116 64.4997H108.323C108.323 65.4753 108.563 66.2285 109.042 66.7591C109.538 67.2726 110.197 67.5293 111.019 67.5293C111.669 67.5293 112.209 67.3667 112.637 67.0415C113.082 66.7163 113.347 66.2884 113.432 65.7578H115.974C115.906 66.4938 115.666 67.1613 115.255 67.7604C114.845 68.3595 114.288 68.8388 113.587 69.1982C112.885 69.5406 112.046 69.7117 111.07 69.7117ZM108.4 63.3186H113.381C113.364 63.1988 113.33 63.0105 113.278 62.7538C113.227 62.497 113.116 62.2317 112.945 61.9579C112.773 61.684 112.525 61.4529 112.2 61.2646C111.875 61.0764 111.455 60.9822 110.942 60.9822C110.428 60.9822 110.009 61.0678 109.684 61.239C109.359 61.4101 109.111 61.6241 108.939 61.8808C108.768 62.1376 108.64 62.3943 108.554 62.6511C108.469 62.9078 108.417 63.1304 108.4 63.3186Z" fill="#2E2A2A"/>
<path d="M101.935 69.455C101.096 69.455 100.463 69.2496 100.035 68.8388C99.6242 68.428 99.4188 67.7604 99.4188 66.8361V60.4687H101.858V67.401H104.323V69.455H101.935ZM97.8269 60.7511V58.9025C98.2035 58.9025 98.5116 58.8769 98.7512 58.8255C98.9909 58.7742 99.1792 58.6629 99.3161 58.4917C99.4701 58.3206 99.5814 58.0553 99.6499 57.6958C99.7183 57.3364 99.7526 56.84 99.7526 56.2067H101.858V58.9025H104.271V60.7511H97.8269Z" fill="#2E2A2A"/>
<path d="M90.4548 69.7117C89.4963 69.7117 88.7175 69.4892 88.1184 69.0441C87.5193 68.582 87.0828 67.9487 86.809 67.1442C86.5522 66.3226 86.4238 65.3812 86.4238 64.3199C86.4238 63.2416 86.5608 62.2916 86.8346 61.47C87.1085 60.6484 87.5364 60.0151 88.1184 59.5701C88.7175 59.1079 89.4963 58.8768 90.4548 58.8768C91.071 58.8768 91.5845 58.9624 91.9953 59.1336C92.4232 59.3047 92.7656 59.5101 93.0223 59.7498C93.2962 59.9894 93.5016 60.229 93.6385 60.4687C93.7755 60.6912 93.8696 60.8709 93.921 61.0079H93.9723V58.9025H96.6682V69.4549H94.4088L93.9723 67.7347H93.921C93.8867 67.8545 93.7926 68.0257 93.6385 68.2482C93.4845 68.4536 93.2705 68.6761 92.9967 68.9158C92.7399 69.1383 92.3976 69.3266 91.9697 69.4806C91.5589 69.6347 91.0539 69.7117 90.4548 69.7117ZM91.5332 67.5036C92.1665 67.5036 92.6629 67.3667 93.0223 67.0928C93.3818 66.819 93.63 66.4424 93.7669 65.9631C93.9038 65.4667 93.9723 64.9276 93.9723 64.3456C93.9723 63.7123 93.8953 63.1646 93.7412 62.7024C93.6043 62.2231 93.3561 61.8551 92.9967 61.5984C92.6543 61.3245 92.1665 61.1876 91.5332 61.1876C90.8656 61.1876 90.3436 61.3331 89.967 61.6241C89.6076 61.915 89.3508 62.3002 89.1968 62.7794C89.0598 63.2416 88.9913 63.7636 88.9913 64.3456C88.9913 64.9276 89.0598 65.4582 89.1968 65.9375C89.3508 66.4167 89.6076 66.8018 89.967 67.0928C90.3436 67.3667 90.8656 67.5036 91.5332 67.5036Z" fill="#2E2A2A"/>
<path d="M69.3333 69.455V58.9026H71.8237L71.8751 61.1877H71.9264C71.9436 61.1192 72.0035 60.9737 72.1062 60.7512C72.226 60.5116 72.4057 60.2548 72.6453 59.9809C72.9021 59.69 73.2273 59.4418 73.621 59.2364C74.0147 59.0138 74.5025 58.9026 75.0845 58.9026C75.6493 58.9026 76.12 59.0138 76.4966 59.2364C76.8732 59.4589 77.1727 59.7413 77.3952 60.0836C77.6349 60.426 77.806 60.794 77.9087 61.1877H77.9601C77.9772 61.1192 78.0542 60.9651 78.1912 60.7255C78.3281 60.4859 78.5249 60.2291 78.7817 59.9553C79.0384 59.6643 79.3722 59.4161 79.783 59.2107C80.2109 59.0053 80.7244 58.9026 81.3235 58.9026C81.9911 58.9026 82.5388 59.0481 82.9667 59.3391C83.4118 59.6129 83.7626 59.9724 84.0194 60.4174C84.2761 60.8453 84.4644 61.3075 84.5842 61.8039C84.7212 62.3002 84.8068 62.7795 84.841 63.2417C84.8752 63.6867 84.8923 64.0547 84.8923 64.3457V69.455H82.3505V64.32C82.3505 64.0461 82.3334 63.738 82.2992 63.3957C82.2821 63.0363 82.2136 62.6939 82.0938 62.3687C81.9911 62.0264 81.8113 61.7525 81.5546 61.5471C81.2978 61.3246 80.9384 61.2133 80.4762 61.2133C79.9114 61.2133 79.4749 61.3759 79.1668 61.7012C78.8758 62.0093 78.6704 62.4115 78.5506 62.9079C78.4479 63.3872 78.3966 63.8921 78.3966 64.4227V69.455H75.8291V64.32C75.8291 64.0461 75.8205 63.738 75.8034 63.3957C75.7863 63.0363 75.7178 62.6939 75.598 62.3687C75.4782 62.0264 75.2899 61.7525 75.0331 61.5471C74.7764 61.3246 74.4169 61.2133 73.9548 61.2133C73.407 61.2133 72.9791 61.3759 72.671 61.7012C72.3629 62.0093 72.149 62.4115 72.0291 62.9079C71.9264 63.3872 71.8751 63.8921 71.8751 64.4227V69.455H69.3333Z" fill="#2E2A2A"/>
<path d="M46.2407 69.455V58.9026H48.7311L48.7825 61.1877H48.8338C48.851 61.1192 48.9109 60.9737 49.0136 60.7512C49.1334 60.5116 49.3131 60.2548 49.5528 59.9809C49.8095 59.69 50.1347 59.4418 50.5284 59.2364C50.9221 59.0138 51.4099 58.9026 51.9919 58.9026C52.5567 58.9026 53.0274 59.0138 53.404 59.2364C53.7806 59.4589 54.0801 59.7413 54.3026 60.0836C54.5423 60.426 54.7134 60.794 54.8161 61.1877H54.8675C54.8846 61.1192 54.9616 60.9651 55.0986 60.7255C55.2355 60.4859 55.4323 60.2291 55.6891 59.9553C55.9458 59.6643 56.2796 59.4161 56.6904 59.2107C57.1183 59.0053 57.6318 58.9026 58.2309 58.9026C58.8985 58.9026 59.4462 59.0481 59.8741 59.3391C60.3192 59.6129 60.67 59.9724 60.9268 60.4174C61.1835 60.8453 61.3718 61.3075 61.4916 61.8039C61.6286 62.3002 61.7142 62.7795 61.7484 63.2417C61.7826 63.6867 61.7997 64.0547 61.7997 64.3457V69.455H59.2579V64.32C59.2579 64.0461 59.2408 63.738 59.2066 63.3957C59.1895 63.0363 59.121 62.6939 59.0012 62.3687C58.8985 62.0264 58.7187 61.7525 58.462 61.5471C58.2052 61.3246 57.8458 61.2133 57.3836 61.2133C56.8188 61.2133 56.3823 61.3759 56.0742 61.7012C55.7832 62.0093 55.5778 62.4115 55.458 62.9079C55.3553 63.3872 55.304 63.8921 55.304 64.4227V69.455H52.7365V64.32C52.7365 64.0461 52.7279 63.738 52.7108 63.3957C52.6937 63.0363 52.6252 62.6939 52.5054 62.3687C52.3856 62.0264 52.1973 61.7525 51.9405 61.5471C51.6838 61.3246 51.3243 61.2133 50.8622 61.2133C50.3144 61.2133 49.8865 61.3759 49.5784 61.7012C49.2703 62.0093 49.0564 62.4115 48.9365 62.9079C48.8338 63.3872 48.7825 63.8921 48.7825 64.4227V69.455H46.2407Z" fill="#2E2A2A"/>
<path d="M38.2271 69.7117C37.2686 69.7117 36.4898 69.4892 35.8907 69.0441C35.2916 68.582 34.8551 67.9487 34.5812 67.1442C34.3245 66.3226 34.1961 65.3812 34.1961 64.3199C34.1961 63.2416 34.333 62.2916 34.6069 61.47C34.8808 60.6484 35.3087 60.0151 35.8907 59.5701C36.4898 59.1079 37.2686 58.8768 38.2271 58.8768C38.8433 58.8768 39.3568 58.9624 39.7676 59.1336C40.1955 59.3047 40.5379 59.5101 40.7946 59.7498C41.0685 59.9894 41.2739 60.229 41.4108 60.4687C41.5477 60.6912 41.6419 60.8709 41.6932 61.0079H41.7446V58.9025H44.4405V69.4549H42.1811L41.7446 67.7347H41.6932C41.659 67.8545 41.5649 68.0257 41.4108 68.2482C41.2568 68.4536 41.0428 68.6761 40.7689 68.9158C40.5122 69.1383 40.1698 69.3266 39.7419 69.4806C39.3311 69.6347 38.8262 69.7117 38.2271 69.7117ZM39.3054 67.5036C39.9388 67.5036 40.4351 67.3667 40.7946 67.0928C41.1541 66.819 41.4022 66.4424 41.5392 65.9631C41.6761 65.4667 41.7446 64.9276 41.7446 64.3456C41.7446 63.7123 41.6676 63.1646 41.5135 62.7024C41.3766 62.2231 41.1284 61.8551 40.7689 61.5984C40.4266 61.3245 39.9388 61.1876 39.3054 61.1876C38.6379 61.1876 38.1158 61.3331 37.7393 61.6241C37.3798 61.915 37.1231 62.3002 36.969 62.7794C36.8321 63.2416 36.7636 63.7636 36.7636 64.3456C36.7636 64.9276 36.8321 65.4582 36.969 65.9375C37.1231 66.4167 37.3798 66.8018 37.7393 67.0928C38.1158 67.3667 38.6379 67.5036 39.3054 67.5036Z" fill="#2E2A2A"/>
<path d="M27.6766 69.7117C26.4613 69.7117 25.4685 69.455 24.6983 68.9415C23.9451 68.4109 23.3803 67.7347 23.0037 66.9131C22.6443 66.0915 22.456 65.2357 22.4389 64.3456C22.4217 63.2844 22.6186 62.343 23.0294 61.5214C23.4573 60.6827 24.0564 60.0322 24.8266 59.5701C25.614 59.0908 26.5383 58.8512 27.5995 58.8512C28.541 58.8512 29.3882 59.0566 30.1414 59.4674C30.8945 59.8782 31.485 60.4516 31.913 61.1876C32.358 61.9236 32.5891 62.8051 32.6062 63.8321C32.6062 63.8664 32.6062 63.9691 32.6062 64.1402C32.6062 64.2943 32.6062 64.4141 32.6062 64.4997H24.9293C24.9293 65.4753 25.169 66.2285 25.6482 66.7591C26.1446 67.2726 26.8036 67.5293 27.6252 67.5293C28.2757 67.5293 28.8148 67.3667 29.2427 67.0415C29.6878 66.7163 29.9531 66.2884 30.0387 65.7578H32.5805C32.512 66.4938 32.2724 67.1613 31.8616 67.7604C31.4508 68.3595 30.8945 68.8388 30.1927 69.1982C29.4909 69.5406 28.6522 69.7117 27.6766 69.7117ZM25.0064 63.3186H29.9873C29.9702 63.1988 29.936 63.0105 29.8846 62.7538C29.8333 62.497 29.722 62.2317 29.5509 61.9579C29.3797 61.684 29.1315 61.4529 28.8063 61.2646C28.4811 61.0764 28.0617 60.9822 27.5482 60.9822C27.0347 60.9822 26.6153 61.0678 26.2901 61.239C25.9649 61.4101 25.7167 61.6241 25.5455 61.8808C25.3744 62.1376 25.246 62.3943 25.1604 62.6511C25.0748 62.9078 25.0235 63.1304 25.0064 63.3186Z" fill="#2E2A2A"/>
<path d="M18.8809 55.4621V69.455H16.2621V55.4621H18.8809ZM12 57.2594V55H23.1687V57.2594H12Z" fill="#2E2A2A"/>
<path d="M63.0409 64.0361C64.8464 64.5638 66.769 64.5356 68.558 63.9546L72.0077 62.8347L72.833 65.3775L69.3844 66.4985C67.084 67.2456 64.6113 67.2816 62.2897 66.603L58.138 65.3901L58.8881 62.8221L63.0409 64.0361Z" fill="#4DAFFE"/>
<path d="M67.2855 62.5098C66.6728 64.4449 66.7059 66.5269 67.3796 68.4417L68.3323 71.1506L65.8104 72.0386L64.8566 69.3297C63.9903 66.8675 63.9485 64.1905 64.7364 61.7022L65.7968 58.3539L68.3459 59.1604L67.2855 62.5098Z" fill="#4DAFFE"/>
</svg>
