<svg width="19" height="21" viewBox="0 0 19 21" fill="none" xmlns="http://www.w3.org/2000/svg">
<path d="M7.71447 18.9583C7.8827 19.2497 8.12465 19.4916 8.41601 19.6598C8.70737 19.828 9.03787 19.9166 9.3743 19.9166C9.71073 19.9166 10.0412 19.828 10.3326 19.6598C10.624 19.4916 10.8659 19.2497 11.0341 18.9583M1.00038 13.5208C0.875191 13.658 0.792572 13.8286 0.762578 14.0119C0.732584 14.1952 0.756506 14.3833 0.831435 14.5533C0.906364 14.7232 1.02907 14.8677 1.18463 14.9692C1.34019 15.0708 1.52189 15.1249 1.70763 15.125H17.041C17.2267 15.1251 17.4084 15.0712 17.5641 14.9699C17.7197 14.8685 17.8426 14.7242 17.9177 14.5543C17.9929 14.3845 18.017 14.1965 17.9873 14.0131C17.9575 13.8298 17.8751 13.6591 17.7501 13.5217C16.4755 12.2078 15.1243 10.8115 15.1243 6.5C15.1243 4.97501 14.5185 3.51247 13.4402 2.43414C12.3618 1.3558 10.8993 0.75 9.3743 0.75C7.8493 0.75 6.38677 1.3558 5.30844 2.43414C4.2301 3.51247 3.6243 4.97501 3.6243 6.5C3.6243 10.8115 2.27209 12.2078 1.00038 13.5208Z" stroke="black" stroke-width="1.5" stroke-linecap="round" stroke-linejoin="round"/>
</svg>
