<svg width="22" height="22" viewBox="0 0 22 22" fill="none" xmlns="http://www.w3.org/2000/svg">
<path fill-rule="evenodd" clip-rule="evenodd" d="M3.10001 3.1001C2.27158 3.1001 1.60001 3.77167 1.60001 4.6001V18.1001C1.60001 18.9285 2.27158 19.6001 3.10001 19.6001H18.1C18.9284 19.6001 19.6 18.9285 19.6 18.1001V4.6001C19.6 3.77167 18.9284 3.1001 18.1 3.1001H3.10001ZM0.100006 4.6001C0.100006 2.94324 1.44315 1.6001 3.10001 1.6001H18.1C19.7569 1.6001 21.1 2.94324 21.1 4.6001V18.1001C21.1 19.757 19.7569 21.1001 18.1 21.1001H3.10001C1.44315 21.1001 0.100006 19.757 0.100006 18.1001V4.6001Z" fill="black" stroke="black" stroke-width="0.2" stroke-linejoin="round"/>
<path d="M12.475 8.44971C13.0411 8.44971 13.5004 8.90901 13.5004 9.4751C13.5004 10.0412 13.0411 10.5005 12.475 10.5005C11.9089 10.5005 11.4496 10.0412 11.4496 9.4751C11.4496 8.90901 11.9089 8.44971 12.475 8.44971Z" fill="black" stroke="black" stroke-width="0.2"/>
<path d="M16.225 8.44971C16.7911 8.44971 17.2504 8.90901 17.2504 9.4751C17.2504 10.0412 16.7911 10.5005 16.225 10.5005C15.6589 10.5005 15.1996 10.0412 15.1996 9.4751C15.1996 8.90901 15.6589 8.44971 16.225 8.44971Z" fill="black" stroke="black" stroke-width="0.2"/>
<path d="M12.475 12.1997C13.0411 12.1997 13.5004 12.659 13.5004 13.2251C13.5004 13.7912 13.0411 14.2505 12.475 14.2505C11.9089 14.2505 11.4496 13.7912 11.4496 13.2251C11.4496 12.659 11.9089 12.1997 12.475 12.1997Z" fill="black" stroke="black" stroke-width="0.2"/>
<path d="M16.225 12.1997C16.7911 12.1997 17.2504 12.659 17.2504 13.2251C17.2504 13.7912 16.7911 14.2505 16.225 14.2505C15.6589 14.2505 15.1996 13.7912 15.1996 13.2251C15.1996 12.659 15.6589 12.1997 16.225 12.1997Z" fill="black" stroke="black" stroke-width="0.2"/>
<path d="M4.97501 12.1997C5.5411 12.1997 6.0004 12.659 6.0004 13.2251C6.0004 13.7912 5.5411 14.2505 4.97501 14.2505C4.40891 14.2505 3.94962 13.7912 3.94962 13.2251C3.94962 12.659 4.40891 12.1997 4.97501 12.1997Z" fill="black" stroke="black" stroke-width="0.2"/>
<path d="M8.72501 12.1997C9.2911 12.1997 9.7504 12.659 9.7504 13.2251C9.7504 13.7912 9.2911 14.2505 8.72501 14.2505C8.15891 14.2505 7.69962 13.7912 7.69962 13.2251C7.69962 12.659 8.15891 12.1997 8.72501 12.1997Z" fill="black" stroke="black" stroke-width="0.2"/>
<path d="M4.97501 15.9497C5.5411 15.9497 6.0004 16.409 6.0004 16.9751C6.0004 17.5412 5.5411 18.0005 4.97501 18.0005C4.40891 18.0005 3.94962 17.5412 3.94962 16.9751C3.94962 16.409 4.40891 15.9497 4.97501 15.9497Z" fill="black" stroke="black" stroke-width="0.2"/>
<path d="M8.72501 15.9497C9.2911 15.9497 9.7504 16.409 9.7504 16.9751C9.7504 17.5412 9.2911 18.0005 8.72501 18.0005C8.15891 18.0005 7.69962 17.5412 7.69962 16.9751C7.69962 16.409 8.15891 15.9497 8.72501 15.9497Z" fill="black" stroke="black" stroke-width="0.2"/>
<path d="M12.475 15.9497C13.0411 15.9497 13.5004 16.409 13.5004 16.9751C13.5004 17.5412 13.0411 18.0005 12.475 18.0005C11.9089 18.0005 11.4496 17.5412 11.4496 16.9751C11.4496 16.409 11.9089 15.9497 12.475 15.9497Z" fill="black" stroke="black" stroke-width="0.2"/>
<path fill-rule="evenodd" clip-rule="evenodd" d="M4.60001 0.100098C5.01422 0.100098 5.35001 0.435884 5.35001 0.850098V2.3501C5.35001 2.76431 5.01422 3.1001 4.60001 3.1001C4.18579 3.1001 3.85001 2.76431 3.85001 2.3501V0.850098C3.85001 0.435884 4.18579 0.100098 4.60001 0.100098Z" fill="black" stroke="black" stroke-width="0.2" stroke-linecap="round" stroke-linejoin="round"/>
<path fill-rule="evenodd" clip-rule="evenodd" d="M16.6 0.100098C17.0142 0.100098 17.35 0.435884 17.35 0.850098V2.3501C17.35 2.76431 17.0142 3.1001 16.6 3.1001C16.1858 3.1001 15.85 2.76431 15.85 2.3501V0.850098C15.85 0.435884 16.1858 0.100098 16.6 0.100098Z" fill="black" stroke="black" stroke-width="0.2" stroke-linecap="round" stroke-linejoin="round"/>
<path fill-rule="evenodd" clip-rule="evenodd" d="M0.850006 5.3501H20.35V6.8501H0.850006V5.3501Z" fill="black" stroke="black" stroke-width="0.2" stroke-linejoin="round"/>
</svg>
