<svg width="9" height="9" viewBox="0 0 9 9" fill="none" xmlns="http://www.w3.org/2000/svg">
<g clip-path="url(#clip0_306_320)">
<path d="M7.875 0.5625C8.02418 0.5625 8.16726 0.621763 8.27275 0.727252C8.37824 0.832742 8.4375 0.975816 8.4375 1.125V5.625C8.4375 5.77418 8.37824 5.91726 8.27275 6.02275C8.16726 6.12824 8.02418 6.1875 7.875 6.1875H2.48288C2.18453 6.18756 1.89843 6.30613 1.6875 6.51713L0.5625 7.64213V1.125C0.5625 0.975816 0.621763 0.832742 0.727252 0.727252C0.832742 0.621763 0.975816 0.5625 1.125 0.5625H7.875ZM1.125 0C0.826631 0 0.540483 0.118526 0.329505 0.329505C0.118526 0.540483 0 0.826631 0 1.125L0 8.32106C1.18209e-05 8.37671 0.0165333 8.43111 0.0474735 8.47737C0.0784136 8.52363 0.122381 8.55966 0.173812 8.58092C0.225243 8.60218 0.281824 8.60771 0.336395 8.59679C0.390966 8.58588 0.441073 8.55903 0.480375 8.51962L2.08519 6.91481C2.19065 6.80932 2.3337 6.75003 2.48288 6.75H7.875C8.17337 6.75 8.45952 6.63147 8.6705 6.4205C8.88147 6.20952 9 5.92337 9 5.625V1.125C9 0.826631 8.88147 0.540483 8.6705 0.329505C8.45952 0.118526 8.17337 0 7.875 0L1.125 0Z" fill="#515151"/>
<path d="M1.6875 1.96875C1.6875 1.89416 1.71713 1.82262 1.76988 1.76988C1.82262 1.71713 1.89416 1.6875 1.96875 1.6875H7.03125C7.10584 1.6875 7.17738 1.71713 7.23012 1.76988C7.28287 1.82262 7.3125 1.89416 7.3125 1.96875C7.3125 2.04334 7.28287 2.11488 7.23012 2.16762C7.17738 2.22037 7.10584 2.25 7.03125 2.25H1.96875C1.89416 2.25 1.82262 2.22037 1.76988 2.16762C1.71713 2.11488 1.6875 2.04334 1.6875 1.96875ZM1.6875 3.375C1.6875 3.30041 1.71713 3.22887 1.76988 3.17613C1.82262 3.12338 1.89416 3.09375 1.96875 3.09375H7.03125C7.10584 3.09375 7.17738 3.12338 7.23012 3.17613C7.28287 3.22887 7.3125 3.30041 7.3125 3.375C7.3125 3.44959 7.28287 3.52113 7.23012 3.57387C7.17738 3.62662 7.10584 3.65625 7.03125 3.65625H1.96875C1.89416 3.65625 1.82262 3.62662 1.76988 3.57387C1.71713 3.52113 1.6875 3.44959 1.6875 3.375ZM1.6875 4.78125C1.6875 4.70666 1.71713 4.63512 1.76988 4.58238C1.82262 4.52963 1.89416 4.5 1.96875 4.5H4.78125C4.85584 4.5 4.92738 4.52963 4.98012 4.58238C5.03287 4.63512 5.0625 4.70666 5.0625 4.78125C5.0625 4.85584 5.03287 4.92738 4.98012 4.98012C4.92738 5.03287 4.85584 5.0625 4.78125 5.0625H1.96875C1.89416 5.0625 1.82262 5.03287 1.76988 4.98012C1.71713 4.92738 1.6875 4.85584 1.6875 4.78125Z" fill="#515151"/>
</g>
<defs>
<clipPath id="clip0_306_320">
<rect width="9" height="9" fill="white"/>
</clipPath>
</defs>
</svg>
