<svg width="15" height="15" viewBox="0 0 15 15" fill="none" xmlns="http://www.w3.org/2000/svg">
<path fill-rule="evenodd" clip-rule="evenodd" d="M3.88729 3.88729C4.07035 3.70424 4.36715 3.70424 4.55021 3.88729L11.1127 10.4498C11.2958 10.6329 11.2958 10.9296 11.1127 11.1127C10.9296 11.2958 10.6329 11.2958 10.4498 11.1127L3.88729 4.55021C3.70424 4.36715 3.70424 4.07035 3.88729 3.88729Z" fill="#B5B5B5"/>
<path fill-rule="evenodd" clip-rule="evenodd" d="M11.1127 3.88729C11.2958 4.07035 11.2958 4.36715 11.1127 4.55021L4.55021 11.1127C4.36715 11.2958 4.07035 11.2958 3.88729 11.1127C3.70424 10.9296 3.70424 10.6329 3.88729 10.4498L10.4498 3.88729C10.6329 3.70424 10.9296 3.70424 11.1127 3.88729Z" fill="#B5B5B5"/>
</svg>
