<svg width="20" height="20" viewBox="0 0 20 20" fill="none" xmlns="http://www.w3.org/2000/svg">
<path d="M9.6426 15.5H6.7001C6.40836 15.5 6.12857 15.3841 5.92228 15.1778C5.71599 14.9715 5.6001 14.6917 5.6001 14.4V5.6C5.6001 5.30827 5.71599 5.02848 5.92228 4.82219C6.12857 4.6159 6.40836 4.5 6.7001 4.5H11.1001M11.1001 4.5C11.2744 4.49958 11.447 4.53367 11.6081 4.60032C11.7691 4.66696 11.9154 4.76484 12.0384 4.8883L14.0118 6.8617C14.1353 6.98472 14.2331 7.13097 14.2998 7.29202C14.3664 7.45306 14.4005 7.62571 14.4001 7.8M11.1001 4.5V7.25C11.1001 7.39587 11.158 7.53577 11.2612 7.63891C11.3643 7.74206 11.5042 7.8 11.6501 7.8H14.4001M14.4001 7.8V10.7425M11.1001 13.85H14.4001M12.7501 12.2V15.5" stroke="#7A7A7A" stroke-linecap="round" stroke-linejoin="round"/>
</svg>
