<svg width="24" height="21" viewBox="0 0 24 21" fill="none" xmlns="http://www.w3.org/2000/svg">
<path fill-rule="evenodd" clip-rule="evenodd" d="M4.40006 1.69996C4.09627 1.69996 3.80492 1.81848 3.59011 2.02946C3.3753 2.24044 3.25462 2.52659 3.25462 2.82496V6.19998C3.25462 6.61419 2.91273 6.94998 2.49099 6.94998C2.06925 6.94998 1.72736 6.61419 1.72736 6.19998V2.82496C1.72736 2.12877 2.00894 1.46108 2.51017 0.968799C3.0114 0.476514 3.69122 0.199951 4.40006 0.199951H8.02206C8.54976 0.199964 9.06566 0.353399 9.50471 0.640915C9.50472 0.640928 9.50474 0.64094 9.50476 0.640953L10.8335 1.51096C11.0216 1.63418 11.2427 1.69995 11.4689 1.69996C11.4689 1.69996 11.4689 1.69996 11.4689 1.69996H18.909C19.6179 1.69996 20.2977 1.97652 20.7989 2.46881C21.3002 2.96109 21.5818 3.62877 21.5818 4.32497V6.19998C21.5818 6.61419 21.2399 6.94998 20.8181 6.94998C20.3964 6.94998 20.0545 6.61419 20.0545 6.19998V4.32497C20.0545 4.0266 19.9338 3.74045 19.719 3.52947C19.5042 3.31849 19.2128 3.19996 18.909 3.19996H11.4689C10.9412 3.19995 10.4253 3.04652 9.98625 2.759C9.98623 2.75899 9.98621 2.75897 9.98619 2.75896L8.65748 1.88896C8.46931 1.76573 8.24822 1.69997 8.02206 1.69996C8.02205 1.69996 8.02207 1.69996 8.02206 1.69996H4.40006Z" fill="black"/>
<path d="M11.4689 1.69996C11.2427 1.69995 11.0216 1.63418 10.8335 1.51096L9.50476 0.640953C9.50474 0.64094 9.50472 0.640928 9.50471 0.640915C9.06566 0.353399 8.54976 0.199964 8.02206 0.199951H4.40006C3.69122 0.199951 3.0114 0.476514 2.51017 0.968799C2.00894 1.46108 1.72736 2.12877 1.72736 2.82496V6.19998C1.72736 6.61419 2.06925 6.94998 2.49099 6.94998C2.91273 6.94998 3.25462 6.61419 3.25462 6.19998V2.82496C3.25462 2.52659 3.3753 2.24044 3.59011 2.02946C3.80492 1.81848 4.09627 1.69996 4.40006 1.69996H8.02206M11.4689 1.69996C11.4689 1.69996 11.4689 1.69996 11.4689 1.69996ZM11.4689 1.69996H18.909C19.6179 1.69996 20.2977 1.97652 20.7989 2.46881C21.3002 2.96109 21.5818 3.62877 21.5818 4.32497V6.19998C21.5818 6.61419 21.2399 6.94998 20.8181 6.94998C20.3964 6.94998 20.0545 6.61419 20.0545 6.19998V4.32497C20.0545 4.0266 19.9338 3.74045 19.719 3.52947C19.5042 3.31849 19.2128 3.19996 18.909 3.19996H11.4689C10.9412 3.19995 10.4253 3.04652 9.98625 2.759C9.98623 2.75899 9.98621 2.75897 9.98619 2.75896L8.65748 1.88896C8.46931 1.76573 8.24822 1.69997 8.02206 1.69996M8.02206 1.69996C8.02207 1.69996 8.02205 1.69996 8.02206 1.69996Z" stroke="black" stroke-width="0.4" stroke-linecap="round" stroke-linejoin="round"/>
<path fill-rule="evenodd" clip-rule="evenodd" d="M2.49095 7.74526C2.38553 7.74525 2.28126 7.76863 2.18469 7.81392C2.08813 7.85921 2.00136 7.92543 1.92985 8.00841C1.85834 8.09139 1.80364 8.18934 1.76919 8.29608C1.73537 8.40091 1.72179 8.51199 1.72927 8.62257L2.50262 17.0746C2.50505 17.1011 2.50626 17.1277 2.50626 17.1544C2.50626 17.4795 2.62667 17.7913 2.84105 18.0214C3.05526 18.2514 3.34581 18.3809 3.649 18.3817H19.6601C19.9633 18.3809 20.2539 18.2514 20.4681 18.0214C20.6824 17.7913 20.8029 17.4795 20.8029 17.1544C20.8029 17.1277 20.8041 17.1011 20.8065 17.0746L21.5798 8.62257C21.5873 8.5122 21.5738 8.40134 21.5401 8.29668C21.5058 8.19011 21.4513 8.09229 21.3801 8.00934C21.3088 7.9264 21.2223 7.86013 21.1261 7.81468C21.0301 7.76938 20.9264 7.74574 20.8215 7.74526H2.49095ZM2.49099 6.10889C2.17476 6.10887 1.86196 6.17901 1.57227 6.31487C1.28257 6.45074 1.02226 6.6494 0.807736 6.89835C0.593209 7.1473 0.429111 7.44114 0.325773 7.76137C0.222436 8.0816 0.182097 8.42129 0.207298 8.75904C0.207662 8.76392 0.208067 8.7688 0.208513 8.77367L0.979306 17.1977C0.989791 17.9407 1.26948 18.6509 1.76016 19.1775C2.26038 19.7144 2.93899 20.0167 3.64703 20.018L3.64837 20.018H19.6607L19.6621 20.018C20.3701 20.0167 21.0487 19.7144 21.549 19.1775C22.0396 18.6509 22.3193 17.9407 22.3298 17.1977L23.1006 8.77367C23.101 8.7688 23.1015 8.76392 23.1018 8.75904C23.127 8.42193 23.0868 8.08289 22.9839 7.76318C22.881 7.44347 22.7176 7.15 22.5038 6.90117C22.2901 6.65233 22.0306 6.45351 21.7418 6.31718C21.4529 6.18084 21.1409 6.10993 20.8252 6.10889L20.8229 6.10889H2.49099Z" fill="black" stroke="black" stroke-width="0.4" stroke-linecap="round" stroke-linejoin="round"/>
</svg>
