<svg width="24" height="25" viewBox="0 0 24 25" fill="none" xmlns="http://www.w3.org/2000/svg">
<path d="M23 22.5C23 23.0523 22.5523 23.5 22 23.5H15.5C14.9477 23.5 14.5 23.0523 14.5 22.5V16.8662C14.5 15.4134 13.3601 14.2803 12 14.2803C10.6399 14.2803 9.5 15.4134 9.5 16.8662V22.5C9.5 23.0523 9.05228 23.5 8.5 23.5H2C1.44772 23.5 1 23.0523 1 22.5V12C1 11.7348 1.10543 11.4805 1.29297 11.293L11.293 1.29297L11.3691 1.22461C11.7619 0.904259 12.3409 0.926853 12.707 1.29297L22.707 11.293C22.8946 11.4805 23 11.7348 23 12V22.5Z" stroke="black" stroke-width="2" stroke-linejoin="round"/>
</svg>
