<svg width="300" height="50" viewBox="0 0 300 50" fill="none" xmlns="http://www.w3.org/2000/svg">
<path d="M285.78 42.4374C282.274 42.4374 279.411 41.6968 277.189 40.2156C275.016 38.6849 273.387 36.7346 272.301 34.3646C271.264 31.9946 270.721 29.5259 270.671 26.9584C270.622 23.8971 271.19 21.1815 272.375 18.8115C273.609 16.3921 275.337 14.5159 277.559 13.1828C279.83 11.8003 282.497 11.109 285.558 11.109C288.273 11.109 290.717 11.7015 292.89 12.8865C295.062 14.0715 296.766 15.7256 298 17.8487C299.284 19.9718 299.951 22.5146 300 25.4771C300 25.5759 300 25.8721 300 26.3659C300 26.8103 300 27.1559 300 27.4028H277.855C277.855 30.2171 278.547 32.3896 279.929 33.9202C281.361 35.4015 283.262 36.1421 285.632 36.1421C287.508 36.1421 289.063 35.6731 290.298 34.7349C291.582 33.7968 292.347 32.5624 292.594 31.0318H299.926C299.728 33.1549 299.037 35.0806 297.852 36.8087C296.667 38.5368 295.062 39.9193 293.038 40.9562C291.014 41.9437 288.594 42.4374 285.78 42.4374ZM278.077 23.9959H292.446C292.396 23.6503 292.297 23.1071 292.149 22.3665C292.001 21.6259 291.68 20.8606 291.187 20.0706C290.693 19.2806 289.977 18.614 289.039 18.0709C288.101 17.5278 286.891 17.2562 285.41 17.2562C283.928 17.2562 282.719 17.5031 281.781 17.9968C280.842 18.4906 280.127 19.1078 279.633 19.8484C279.139 20.589 278.769 21.3296 278.522 22.0703C278.275 22.8109 278.127 23.4528 278.077 23.9959Z" fill="#2E2A2A"/>
<path d="M259.428 41.6971C257.008 41.6971 255.182 41.1046 253.947 39.9196C252.762 38.7346 252.17 36.8089 252.17 34.1427V15.7752H259.206V35.7721H266.316V41.6971H259.428ZM247.578 16.5899V11.2574C248.664 11.2574 249.553 11.1833 250.244 11.0352C250.935 10.8871 251.478 10.5661 251.873 10.0724C252.318 9.57865 252.639 8.81333 252.836 7.77646C253.034 6.73958 253.132 5.30771 253.132 3.48083H259.206V11.2574H266.167V16.5899H247.578Z" fill="#2E2A2A"/>
<path d="M226.312 42.4375C223.547 42.4375 221.301 41.7956 219.572 40.5118C217.844 39.1787 216.585 37.3518 215.795 35.0312C215.055 32.6612 214.684 29.9456 214.684 26.8843C214.684 23.7737 215.079 21.0334 215.869 18.6634C216.659 16.2934 217.894 14.4665 219.572 13.1828C221.301 11.8497 223.547 11.1831 226.312 11.1831C228.09 11.1831 229.571 11.43 230.756 11.9237C231.99 12.4175 232.978 13.01 233.718 13.7012C234.508 14.3925 235.101 15.0837 235.496 15.775C235.891 16.4169 236.162 16.9353 236.311 17.3303H236.459V11.2572H244.235V41.6968H237.718L236.459 36.7347H236.311C236.212 37.0803 235.94 37.574 235.496 38.2159C235.052 38.8084 234.434 39.4503 233.644 40.1415C232.904 40.7834 231.916 41.3265 230.682 41.7709C229.497 42.2153 228.04 42.4375 226.312 42.4375ZM229.423 36.0681C231.25 36.0681 232.681 35.6731 233.718 34.8831C234.755 34.0931 235.471 33.0068 235.866 31.6243C236.261 30.1925 236.459 28.6372 236.459 26.9584C236.459 25.1315 236.237 23.5515 235.792 22.2184C235.397 20.8359 234.681 19.7744 233.644 19.0337C232.657 18.2437 231.25 17.8487 229.423 17.8487C227.497 17.8487 225.991 18.2684 224.905 19.1078C223.868 19.9472 223.127 21.0581 222.683 22.4406C222.288 23.7737 222.091 25.2797 222.091 26.9584C222.091 28.6372 222.288 30.1678 222.683 31.5503C223.127 32.9328 223.868 34.0437 224.905 34.8831C225.991 35.6731 227.497 36.0681 229.423 36.0681Z" fill="#2E2A2A"/>
<path d="M165.384 41.697V11.2573H172.569L172.717 17.8489H172.865C172.914 17.6514 173.087 17.2317 173.383 16.5898C173.729 15.8986 174.247 15.1579 174.939 14.3679C175.679 13.5286 176.617 12.8126 177.753 12.2201C178.889 11.5783 180.296 11.2573 181.974 11.2573C183.604 11.2573 184.962 11.5783 186.048 12.2201C187.134 12.862 187.998 13.6767 188.64 14.6642C189.331 15.6517 189.825 16.7133 190.121 17.8489H190.27C190.319 17.6514 190.541 17.207 190.936 16.5158C191.331 15.8245 191.899 15.0839 192.64 14.2939C193.38 13.4545 194.343 12.7386 195.528 12.1461C196.762 11.5536 198.244 11.2573 199.972 11.2573C201.897 11.2573 203.477 11.677 204.712 12.5164C205.995 13.3064 207.008 14.3433 207.748 15.627C208.489 16.8614 209.032 18.1945 209.378 19.6264C209.773 21.0583 210.02 22.4408 210.118 23.7739C210.217 25.0576 210.266 26.1192 210.266 26.9586V41.697H202.934V26.8845C202.934 26.0945 202.885 25.2058 202.786 24.2183C202.737 23.1814 202.539 22.1939 202.194 21.2558C201.897 20.2683 201.379 19.4783 200.638 18.8858C199.898 18.2439 198.861 17.9229 197.528 17.9229C195.898 17.9229 194.639 18.392 193.75 19.3301C192.911 20.2189 192.319 21.3792 191.973 22.8111C191.677 24.1936 191.529 25.6501 191.529 27.1808V41.697H184.122V26.8845C184.122 26.0945 184.098 25.2058 184.048 24.2183C183.999 23.1814 183.801 22.1939 183.456 21.2558C183.11 20.2683 182.567 19.4783 181.826 18.8858C181.086 18.2439 180.049 17.9229 178.716 17.9229C177.136 17.9229 175.901 18.392 175.013 19.3301C174.124 20.2189 173.507 21.3792 173.161 22.8111C172.865 24.1936 172.717 25.6501 172.717 27.1808V41.697H165.384Z" fill="#2E2A2A"/>
<path d="M98.7712 41.697V11.2573H105.955L106.103 17.8489H106.252C106.301 17.6514 106.474 17.2317 106.77 16.5898C107.116 15.8986 107.634 15.1579 108.325 14.3679C109.066 13.5286 110.004 12.8126 111.14 12.2201C112.275 11.5783 113.682 11.2573 115.361 11.2573C116.991 11.2573 118.348 11.5783 119.435 12.2201C120.521 12.862 121.385 13.6767 122.027 14.6642C122.718 15.6517 123.212 16.7133 123.508 17.8489H123.656C123.706 17.6514 123.928 17.207 124.323 16.5158C124.718 15.8245 125.286 15.0839 126.026 14.2939C126.767 13.4545 127.73 12.7386 128.915 12.1461C130.149 11.5536 131.63 11.2573 133.358 11.2573C135.284 11.2573 136.864 11.677 138.098 12.5164C139.382 13.3064 140.394 14.3433 141.135 15.627C141.876 16.8614 142.419 18.1945 142.764 19.6264C143.159 21.0583 143.406 22.4408 143.505 23.7739C143.604 25.0576 143.653 26.1192 143.653 26.9586V41.697H136.321V26.8845C136.321 26.0945 136.272 25.2058 136.173 24.2183C136.123 23.1814 135.926 22.1939 135.58 21.2558C135.284 20.2683 134.766 19.4783 134.025 18.8858C133.284 18.2439 132.247 17.9229 130.914 17.9229C129.285 17.9229 128.026 18.392 127.137 19.3301C126.298 20.2189 125.705 21.3792 125.36 22.8111C125.063 24.1936 124.915 25.6501 124.915 27.1808V41.697H117.509V26.8845C117.509 26.0945 117.484 25.2058 117.435 24.2183C117.386 23.1814 117.188 22.1939 116.842 21.2558C116.497 20.2683 115.954 19.4783 115.213 18.8858C114.472 18.2439 113.436 17.9229 112.102 17.9229C110.522 17.9229 109.288 18.392 108.399 19.3301C107.511 20.2189 106.893 21.3792 106.548 22.8111C106.252 24.1936 106.103 25.6501 106.103 27.1808V41.697H98.7712Z" fill="#2E2A2A"/>
<path d="M75.6551 42.4375C72.8901 42.4375 70.6435 41.7956 68.9154 40.5118C67.1872 39.1787 65.9282 37.3518 65.1382 35.0312C64.3975 32.6612 64.0272 29.9456 64.0272 26.8843C64.0272 23.7737 64.4222 21.0334 65.2122 18.6634C66.0022 16.2934 67.2366 14.4665 68.9154 13.1828C70.6435 11.8497 72.8901 11.1831 75.6551 11.1831C77.4326 11.1831 78.9138 11.43 80.0988 11.9237C81.3332 12.4175 82.3207 13.01 83.0613 13.7012C83.8513 14.3925 84.4438 15.0837 84.8388 15.775C85.2338 16.4169 85.5054 16.9353 85.6535 17.3303H85.8017V11.2572H93.5782V41.6968H87.0607L85.8017 36.7347H85.6535C85.5548 37.0803 85.2832 37.574 84.8388 38.2159C84.3945 38.8084 83.7773 39.4503 82.9873 40.1415C82.2466 40.7834 81.2591 41.3265 80.0248 41.7709C78.8398 42.2153 77.3832 42.4375 75.6551 42.4375ZM78.7657 36.0681C80.5926 36.0681 82.0245 35.6731 83.0613 34.8831C84.0982 34.0931 84.8141 33.0068 85.2091 31.6243C85.6041 30.1925 85.8017 28.6372 85.8017 26.9584C85.8017 25.1315 85.5795 23.5515 85.1351 22.2184C84.7401 20.8359 84.0241 19.7744 82.9873 19.0337C81.9998 18.2437 80.5926 17.8487 78.7657 17.8487C76.8401 17.8487 75.3341 18.2684 74.2479 19.1078C73.211 19.9472 72.4704 21.0581 72.026 22.4406C71.631 23.7737 71.4335 25.2797 71.4335 26.9584C71.4335 28.6372 71.631 30.1678 72.026 31.5503C72.4704 32.9328 73.211 34.0437 74.2479 34.8831C75.3341 35.6731 76.8401 36.0681 78.7657 36.0681Z" fill="#2E2A2A"/>
<path d="M45.2209 42.4374C41.7153 42.4374 38.8515 41.6968 36.6297 40.2156C34.4572 38.6849 32.8278 36.7346 31.7415 34.3646C30.7046 31.9946 30.1615 29.5259 30.1121 26.9584C30.0628 23.8971 30.6306 21.1815 31.8156 18.8115C33.05 16.3921 34.7781 14.5159 37 13.1828C39.2712 11.8003 41.9375 11.109 44.9987 11.109C47.7144 11.109 50.1584 11.7015 52.3309 12.8865C54.5034 14.0715 56.2069 15.7256 57.4413 17.8487C58.725 19.9718 59.3916 22.5146 59.441 25.4771C59.441 25.5759 59.441 25.8721 59.441 26.3659C59.441 26.8103 59.441 27.1559 59.441 27.4028H37.2962C37.2962 30.2171 37.9875 32.3896 39.37 33.9202C40.8019 35.4015 42.7028 36.1421 45.0728 36.1421C46.9491 36.1421 48.5044 35.6731 49.7387 34.7349C51.0225 33.7968 51.7878 32.5624 52.0347 31.0318H59.3669C59.1694 33.1549 58.4781 35.0806 57.2931 36.8087C56.1081 38.5368 54.5034 39.9193 52.4791 40.9562C50.4547 41.9437 48.0353 42.4374 45.2209 42.4374ZM37.5184 23.9959H51.8866C51.8372 23.6503 51.7384 23.1071 51.5903 22.3665C51.4422 21.6259 51.1213 20.8606 50.6275 20.0706C50.1338 19.2806 49.4178 18.614 48.4797 18.0709C47.5416 17.5278 46.3319 17.2562 44.8506 17.2562C43.3694 17.2562 42.1597 17.5031 41.2215 17.9968C40.2834 18.4906 39.5675 19.1078 39.0737 19.8484C38.58 20.589 38.2097 21.3296 37.9628 22.0703C37.7159 22.8109 37.5678 23.4528 37.5184 23.9959Z" fill="#2E2A2A"/>
<path d="M19.8488 1.33312V41.6972H12.2944V1.33312H19.8488ZM1.14441e-05 6.5175V0H32.2173V6.5175H1.14441e-05Z" fill="#2E2A2A"/>
<path d="M147.233 26.0655C152.442 27.5877 157.987 27.5065 163.148 25.8305L173.099 22.5999L175.48 29.935L165.532 33.1686C158.896 35.3238 151.763 35.4275 145.067 33.47L133.09 29.9712L135.254 22.5637L147.233 26.0655Z" fill="#4DAFFE"/>
<path d="M159.478 21.6627C157.71 27.2449 157.806 33.2505 159.749 38.774L162.497 46.5883L155.222 49.1498L152.471 41.3355C149.972 34.2332 149.851 26.511 152.124 19.3332L155.183 9.67456L162.536 12.0011L159.478 21.6627Z" fill="#4DAFFE"/>
</svg>
