<svg width="15" height="15" viewBox="0 0 15 15" fill="none" xmlns="http://www.w3.org/2000/svg">
<g clip-path="url(#clip0_114_590)">
<path d="M9.37496 3.12499L11.875 5.62499M13.2337 4.25749C13.5642 3.92713 13.7498 3.47904 13.7499 3.01178C13.7499 2.54452 13.5644 2.09637 13.234 1.76593C12.9037 1.43549 12.4556 1.24981 11.9883 1.24976C11.521 1.2497 11.0729 1.43526 10.7425 1.76562L2.40121 10.1087C2.2561 10.2534 2.14878 10.4316 2.08871 10.6275L1.26308 13.3475C1.24693 13.4015 1.24571 13.459 1.25955 13.5137C1.2734 13.5683 1.30178 13.6183 1.34171 13.6581C1.38163 13.698 1.4316 13.7263 1.48631 13.74C1.54102 13.7538 1.59843 13.7525 1.65246 13.7362L4.37308 12.9112C4.56882 12.8517 4.74694 12.7451 4.89183 12.6006L13.2337 4.25749Z" stroke="#21272A" stroke-width="0.8" stroke-linecap="round" stroke-linejoin="round"/>
</g>
<defs>
<clipPath id="clip0_114_590">
<rect width="15" height="15" fill="white"/>
</clipPath>
</defs>
</svg>
