<svg width="15" height="15" viewBox="0 0 15 15" fill="none" xmlns="http://www.w3.org/2000/svg">
<g clip-path="url(#clip0_114_595)">
<path d="M7.5 10.625V13.75M9.375 5.8375V4.375C9.375 4.20924 9.44085 4.05027 9.55806 3.93306C9.67527 3.81585 9.83424 3.75 10 3.75C10.3315 3.75 10.6495 3.6183 10.8839 3.38388C11.1183 3.14946 11.25 2.83152 11.25 2.5C11.25 2.16848 11.1183 1.85054 10.8839 1.61612C10.6495 1.3817 10.3315 1.25 10 1.25H4.93125M1.25 1.25L13.75 13.75M5.625 5.625V6.725C5.62488 6.95755 5.55988 7.18546 5.43733 7.3831C5.31477 7.58073 5.13951 7.74026 4.93125 7.84375L3.81875 8.40625C3.61049 8.50974 3.43523 8.66927 3.31267 8.8669C3.19012 9.06454 3.12512 9.29245 3.125 9.525V10C3.125 10.1658 3.19085 10.3247 3.30806 10.4419C3.42527 10.5592 3.58424 10.625 3.75 10.625H10.625" stroke="black" stroke-width="0.8" stroke-linecap="round" stroke-linejoin="round"/>
</g>
<defs>
<clipPath id="clip0_114_595">
<rect width="15" height="15" fill="white"/>
</clipPath>
</defs>
</svg>
