<svg width="15" height="15" viewBox="0 0 15 15" fill="none" xmlns="http://www.w3.org/2000/svg">
<g clip-path="url(#clip0_114_559)">
<path d="M6.43121 10.4366L5.36239 13.3731L6.43121 10.4366Z" fill="#CCCCCC"/>
<path d="M6.00316 6.13048C5.92351 6.34897 5.78448 6.5409 5.60172 6.6847C5.41896 6.8285 5.19971 6.91847 4.96861 6.94449L3.73082 7.09257C3.49973 7.11858 3.28047 7.20855 3.09771 7.35235C2.91495 7.49615 2.77593 7.68809 2.69627 7.90657L2.53381 8.35293C2.47712 8.50869 2.48463 8.6806 2.55468 8.83083C2.62473 8.98106 2.75159 9.0973 2.90736 9.154L9.95505 11.7191C10.1108 11.7758 10.2827 11.7683 10.433 11.6983C10.5832 11.6282 10.6994 11.5014 10.7561 11.3456L10.9186 10.8992C10.998 10.6807 11.0149 10.4443 10.9673 10.2167C10.9197 9.98902 10.8096 9.77916 10.6493 9.61069L9.79629 8.70162C9.63598 8.53314 9.52585 8.32329 9.47828 8.09566C9.43071 7.86802 9.44759 7.63163 9.52701 7.41306L10.3308 5.20478C10.3874 5.04902 10.5037 4.92215 10.6539 4.8521C10.8042 4.78205 10.9761 4.77454 11.1318 4.83124C11.4434 4.94462 11.7872 4.92961 12.0876 4.7895C12.3881 4.6494 12.6206 4.39567 12.734 4.08414C12.8474 3.77262 12.8323 3.42881 12.6922 3.12835C12.5521 2.82789 12.2984 2.59539 11.9869 2.482L7.28841 0.771903C6.97689 0.658516 6.63307 0.673527 6.33261 0.813634C6.03216 0.953741 5.79966 1.20747 5.68627 1.51899C5.57289 1.83052 5.5879 2.17433 5.728 2.47479C5.86811 2.77525 6.12184 3.00775 6.43336 3.12113C6.58913 3.17783 6.71599 3.29408 6.78604 3.44431C6.8561 3.59454 6.8636 3.76644 6.80691 3.92221L6.00316 6.13048Z" fill="#CCCCCC"/>
<path d="M6.43121 10.4366L5.36239 13.3731M6.00316 6.13048C5.92351 6.34897 5.78448 6.5409 5.60172 6.6847C5.41896 6.8285 5.19971 6.91847 4.96861 6.94449L3.73082 7.09257C3.49973 7.11858 3.28047 7.20855 3.09771 7.35235C2.91495 7.49615 2.77593 7.68809 2.69627 7.90657L2.53381 8.35293C2.47712 8.50869 2.48463 8.6806 2.55468 8.83083C2.62473 8.98105 2.75159 9.0973 2.90736 9.154L9.95505 11.7191C10.1108 11.7758 10.2827 11.7683 10.433 11.6983C10.5832 11.6282 10.6994 11.5014 10.7561 11.3456L10.9186 10.8992C10.998 10.6807 11.0149 10.4443 10.9673 10.2167C10.9197 9.98902 10.8096 9.77916 10.6493 9.61069L9.79629 8.70162C9.63598 8.53314 9.52585 8.32329 9.47828 8.09566C9.43071 7.86802 9.44759 7.63163 9.52701 7.41306L10.3308 5.20478C10.3874 5.04902 10.5037 4.92215 10.6539 4.8521C10.8042 4.78205 10.9761 4.77454 11.1318 4.83124C11.4434 4.94462 11.7872 4.92961 12.0876 4.7895C12.3881 4.6494 12.6206 4.39567 12.734 4.08414C12.8474 3.77262 12.8323 3.42881 12.6922 3.12835C12.5521 2.82789 12.2984 2.59539 11.9869 2.482L7.28841 0.771903C6.97689 0.658516 6.63307 0.673527 6.33261 0.813634C6.03216 0.953741 5.79966 1.20747 5.68627 1.51899C5.57289 1.83052 5.5879 2.17433 5.728 2.47479C5.86811 2.77525 6.12184 3.00775 6.43336 3.12113C6.58913 3.17783 6.71599 3.29408 6.78604 3.44431C6.8561 3.59454 6.8636 3.76644 6.80691 3.92221L6.00316 6.13048Z" stroke="#21272A" stroke-linecap="round" stroke-linejoin="round"/>
</g>
<defs>
<clipPath id="clip0_114_559">
<rect width="15" height="15" fill="white"/>
</clipPath>
</defs>
</svg>
