<svg width="16" height="16" viewBox="0 0 16 16" fill="none" xmlns="http://www.w3.org/2000/svg">
<g clip-path="url(#clip0_114_568)">
<path d="M7.27574 8.72361C7.14833 8.59643 6.99649 8.49636 6.82937 8.42945L1.5427 6.30945C1.47958 6.28412 1.42571 6.24009 1.38834 6.18327C1.35096 6.12645 1.33186 6.05955 1.33361 5.99156C1.33535 5.92357 1.35785 5.85774 1.39808 5.8029C1.43832 5.74806 1.49436 5.70685 1.5587 5.68479L14.2254 1.35145C14.2844 1.33012 14.3484 1.32604 14.4097 1.33971C14.471 1.35338 14.5271 1.38423 14.5715 1.42864C14.6159 1.47305 14.6468 1.52919 14.6604 1.59049C14.6741 1.65179 14.67 1.71571 14.6487 1.77479L10.3154 14.4415C10.2933 14.5058 10.2521 14.5618 10.1973 14.6021C10.1424 14.6423 10.0766 14.6648 10.0086 14.6665C9.9406 14.6683 9.87371 14.6492 9.81688 14.6118C9.76006 14.5744 9.71603 14.5206 9.6907 14.4575L7.5707 9.16945C7.50349 9.00245 7.40315 8.85079 7.27574 8.72361ZM7.27574 8.72361L14.5694 1.43145" stroke="#55718A" stroke-linecap="round" stroke-linejoin="round"/>
</g>
<defs>
<clipPath id="clip0_114_568">
<rect width="16" height="16" fill="white"/>
</clipPath>
</defs>
</svg>
